<svg xmlns="http://www.w3.org/2000/svg" width="900" height="1260" viewBox="0 0 900 1260">
  <rect width="900" height="1260" fill="#eaf0f5"/>
  <rect x="90" y="60" width="720" height="1140" rx="14" fill="#101923"/>
  <rect x="112" y="82" width="676" height="1096" rx="10" fill="#f8fbff"/>
  <rect x="145" y="120" width="610" height="220" rx="10" fill="#172334"/>
  <text x="185" y="170" fill="#7dd3fc" font-family="Microsoft YaHei, sans-serif" font-size="16" font-weight="800">FRONTEND ENGINEER</text>
  <text x="185" y="238" fill="#fff" font-family="Microsoft YaHei, sans-serif" font-size="58" font-weight="800">张明</text>
  <text x="188" y="292" fill="#cbd5e1" font-family="Microsoft YaHei, sans-serif" font-size="18" font-weight="700">Vue / Data Visualization / Design System</text>
  <g font-family="Microsoft YaHei, sans-serif" font-size="14" fill="#d6e2ef">
    <rect x="535" y="150" width="170" height="32" rx="16" fill="#223149" stroke="#33445f"/>
    <text x="553" y="171">上海</text>
    <rect x="535" y="200" width="170" height="32" rx="16" fill="#223149" stroke="#33445f"/>
    <text x="553" y="221">138 0000 0000</text>
    <rect x="535" y="250" width="170" height="32" rx="16" fill="#223149" stroke="#33445f"/>
    <text x="553" y="271">zhangming@example.com</text>
  </g>
  <g font-family="Microsoft YaHei, sans-serif">
    <text x="165" y="430" fill="#111827" font-size="21" font-weight="800">Snapshot</text>
    <rect x="300" y="395" width="430" height="96" rx="10" fill="#eef6ff" stroke="#d7e7f7"/>
    <text x="325" y="435" fill="#34404a" font-size="18">
      <tspan x="325" dy="0">5 年前端开发经验，负责中后台、数据可视化与组件化体系，</tspan>
      <tspan x="325" dy="30">关注性能和复杂交互质量。</tspan>
    </text>
    <text x="165" y="570" fill="#111827" font-size="21" font-weight="800">Stack</text>
  </g>
  <g font-family="Microsoft YaHei, sans-serif" font-size="15" font-weight="700" fill="#0369a1">
    <rect x="300" y="542" width="70" height="32" rx="16" fill="#e7f5ff" stroke="#0369a1"/>
    <text x="320" y="564">Vue3</text>
    <rect x="380" y="542" width="116" height="32" rx="16" fill="#e7f5ff" stroke="#0369a1"/>
    <text x="400" y="564">JavaScript</text>
    <rect x="506" y="542" width="64" height="32" rx="16" fill="#e7f5ff" stroke="#0369a1"/>
    <text x="526" y="564">Vite</text>
    <rect x="580" y="542" width="72" height="32" rx="16" fill="#e7f5ff" stroke="#0369a1"/>
    <text x="600" y="564">Pinia</text>
  </g>
  <text x="165" y="725" fill="#111827" font-family="Microsoft YaHei, sans-serif" font-size="21" font-weight="800">Experience</text>
  <g font-family="Microsoft YaHei, sans-serif">
    <rect x="300" y="690" width="430" height="118" rx="8" fill="#fff" stroke="#e6edf5"/>
    <circle cx="328" cy="723" r="5" fill="#0ea5e9"/>
    <text x="350" y="728" fill="#111827" font-size="20" font-weight="800">云舟科技</text>
    <text x="595" y="728" fill="#64748b" font-size="14" font-weight="700">2022.04 - 至今</text>
    <text x="350" y="760" fill="#0ea5e9" font-size="16" font-weight="800">高级前端工程师</text>
    <text x="350" y="790" fill="#4a5567" font-size="15">负责复杂表单、权限流转和数据可视化体验。</text>
    <rect x="300" y="855" width="430" height="118" rx="8" fill="#fff" stroke="#e6edf5"/>
    <circle cx="328" cy="888" r="5" fill="#0ea5e9"/>
    <text x="350" y="893" fill="#111827" font-size="20" font-weight="800">星环数据</text>
    <text x="575" y="893" fill="#64748b" font-size="14" font-weight="700">2019.07 - 2022.03</text>
    <text x="350" y="925" fill="#0ea5e9" font-size="16" font-weight="800">前端工程师</text>
    <text x="350" y="955" fill="#4a5567" font-size="15">参与 BI 报表系统建设，封装图表配置器。</text>
  </g>
</svg>
